<?xml version="1.0" encoding="iso-8859-1"?>
<!-- Generator: Adobe Illustrator 19.0.0, SVG Export Plug-In . SVG Version: 6.00 Build 0)  -->
<svg xmlns="http://www.w3.org/2000/svg" xmlns:xlink="http://www.w3.org/1999/xlink" version="1.1" id="Layer_1" x="0px" y="0px" viewBox="0 0 330.001 330.001" style="enable-background:new 0 0 330.001 330.001;" xml:space="preserve" width="512px" height="512px">
<g id="XMLID_91_">
	<path id="XMLID_92_" d="M165.001,225h-60V15c0-8.284-6.717-15-15-15c-8.285,0-15,6.716-15,15v210h-60   c-6.066,0-11.537,3.655-13.858,9.26c-2.321,5.605-1.038,12.057,3.252,16.347l74.999,75C82.207,328.42,86.022,330,90.001,330   c3.978,0,7.793-1.581,10.605-4.394l75-75c4.291-4.29,5.574-10.742,3.252-16.347C176.537,228.655,171.067,225,165.001,225z" fill="#0075eb"/>
	<path id="XMLID_102_" d="M325.606,79.394l-75-75c-5.857-5.858-15.355-5.858-21.213,0l-75,75c-4.289,4.29-5.572,10.742-3.252,16.347   c2.322,5.605,7.792,9.26,13.859,9.26h60v210.001c0,8.284,6.715,15,15,15c8.283,0,15-6.716,15-15V105h60   c6.066,0,11.536-3.655,13.857-9.26C331.18,90.135,329.897,83.684,325.606,79.394z" fill="#0075eb"/>
</g>
<g>
</g>
<g>
</g>
<g>
</g>
<g>
</g>
<g>
</g>
<g>
</g>
<g>
</g>
<g>
</g>
<g>
</g>
<g>
</g>
<g>
</g>
<g>
</g>
<g>
</g>
<g>
</g>
<g>
</g>
</svg>
